<svg width="1020" height="836" viewBox="0 0 1020 836" fill="none" xmlns="http://www.w3.org/2000/svg">
<path d="M330.741 726.845C329.599 726.44 329.457 726.182 329.139 723.94C328.926 722.433 329.066 721.27 329.502 720.939C330.071 720.508 330.266 720.637 330.469 721.579C330.61 722.227 331.229 723.234 331.846 723.816C332.969 724.875 333.269 726.522 332.432 727.026C332.191 727.171 331.429 727.089 330.74 726.845L330.741 726.845ZM300.033 741.744C299.831 741.717 299.137 741.932 298.49 742.221C297.76 742.547 297.083 742.487 296.703 742.063C295.978 741.255 295.681 737.481 296.38 737.972C296.715 738.208 297.046 738.052 297.479 737.455C298.324 736.29 298.809 736.45 299.89 738.249C300.756 739.69 300.844 741.85 300.033 741.744ZM320.403 728.009C319.902 727.085 319.744 722.969 320.237 723.671C320.416 723.926 320.694 723.932 320.854 723.683C321.329 722.946 322.854 725.059 322.788 726.362C322.707 727.945 321.005 729.121 320.403 728.009ZM340.677 709.171C339.507 708.906 339.164 707.023 340.125 706.135C341.169 705.17 341.544 705.261 342.404 706.692C343.206 708.026 342.172 709.51 340.677 709.171ZM333.563 700.121C332.886 700.281 331.955 700.08 331.495 699.673C331.036 699.267 329.663 698.849 328.446 698.744C326.27 698.558 326.236 698.571 326.446 699.528C326.563 700.063 326.926 700.95 327.252 701.501C327.882 702.57 327.573 703.58 326.715 703.248C326.43 703.137 325.948 703.2 325.645 703.386C325.314 703.59 325.459 703.701 326.008 703.664C326.821 703.61 326.844 703.649 326.218 704.013C325.119 704.652 322.236 703.327 320.63 701.444C319.127 699.682 319.129 698.926 320.642 696.554C320.929 696.105 320.979 695.281 320.754 694.723C320.241 693.456 318.728 694.157 317.885 696.051C317.427 697.082 317.036 697.395 315.829 697.7C314.715 697.981 314.489 698.134 314.935 698.307C315.353 698.469 315.214 698.61 314.465 698.783C312.353 699.272 311.928 699.735 312.457 700.969C312.74 701.63 312.88 702.429 312.767 702.745C312.651 703.072 312.474 702.931 312.358 702.418C312.245 701.922 311.811 701.546 311.395 701.581C310.861 701.626 310.834 701.774 311.304 702.083C311.671 702.323 311.769 702.642 311.521 702.791C311.273 702.94 310.816 702.64 310.506 702.125C309.883 701.088 308.64 701.19 307.639 702.362C307.281 702.781 306.525 703.437 305.96 703.82C305.077 704.418 304.887 704.358 304.62 703.399C304.449 702.785 304.338 701.17 304.373 699.811C304.408 698.452 304.263 697.273 304.052 697.191C303.84 697.109 303.151 696.475 302.521 695.781C301.891 695.088 301.204 694.453 300.994 694.371C300.433 694.152 297.94 695.746 297.865 696.373C297.801 696.9 294.189 697.961 293.302 697.714C291.668 697.258 290.731 697.589 289.688 698.991C288.252 700.921 287.965 701.043 285.513 700.775C284.341 700.647 282.941 700.804 282.401 701.125C280.748 702.105 276.846 703.189 277.031 702.617C277.127 702.32 276.91 702.395 276.54 702.788C275.719 703.666 274.489 703.202 274.065 701.855C273.694 700.678 274.782 697.814 275.966 696.85C276.616 696.321 276.645 695.819 276.088 694.727C275.688 693.94 275.453 692.668 275.568 691.899C275.825 690.173 274.546 688.907 273.013 689.371C271.738 689.757 269.216 693.527 269.697 694.328C270.052 694.919 269.157 697.15 268.298 697.812C267.197 698.663 266.171 697.282 266.714 695.681C267.234 694.15 266.569 693.345 265.637 694.379C265.347 694.701 264.615 695.034 264.011 695.118C263.12 695.242 262.731 695.719 261.951 697.638L260.989 700.005L262.56 700.261C264.359 700.554 264.289 700.625 261.097 701.767C257.912 702.906 257.506 703.924 260.136 704.171C261.71 704.319 261.961 704.483 261.57 705.102C260.77 706.367 256.86 708.517 256.176 708.068C255.833 707.843 254.995 708.022 254.225 708.484C253.483 708.93 252.194 709.29 251.359 709.284C249.123 709.269 247.838 709.71 247.39 710.646C246.751 711.982 245.789 711.499 244.331 709.11C241.827 705.009 241.487 703.865 241.964 701.133C242.218 699.677 242.573 698.258 242.753 697.979C243.324 697.093 241.609 695.354 240.332 695.526C238.519 695.769 234.81 697.349 232.173 699.001C230.449 700.081 229.642 700.375 229.2 700.086C228.369 699.54 227.547 700.118 228.016 700.918C228.627 701.961 228.294 702.955 227.024 703.877C225.633 704.888 223.198 704.485 222.37 703.108C222.081 702.626 221.634 702.358 221.378 702.512C221.122 702.666 221.063 703.042 221.246 703.347C221.43 703.653 221.291 704.076 220.939 704.288C220.586 704.5 220.182 705.097 220.041 705.616C219.809 706.47 219.714 706.526 219.03 706.223C218.614 706.04 217.793 706.178 217.205 706.531C216.618 706.885 215.58 707.072 214.9 706.949C213.721 706.734 213.696 706.678 214.372 705.746C215.375 704.363 214.263 703.862 211.996 704.674C206.019 706.814 202.01 709.647 201.31 712.223C201.079 713.074 199.456 714.547 199.207 714.132C199.161 714.056 199.015 713.119 198.883 712.05C198.614 709.888 197.84 709.09 196.689 709.791C195.659 710.419 193.957 716.237 193.7 720.01C193.436 723.88 192.242 729.026 191.495 729.512C190.714 730.021 190.569 729.635 190.687 727.368C190.742 726.296 190.523 724.759 190.2 723.954C189.568 722.377 190.103 720.841 191.61 719.91C192.175 719.561 192.612 718.638 192.704 717.599C192.788 716.647 193.061 715.111 193.31 714.186C193.558 713.261 193.759 711.722 193.756 710.767C193.753 709.812 193.902 708.939 194.086 708.829C194.511 708.574 194.235 707.871 192.327 704.341C191.478 702.771 190.541 700.518 190.245 699.333C189.913 698.004 189.488 697.197 189.136 697.227C188.033 697.32 187.945 696.943 188.622 695.011C188.998 693.938 189.141 693.038 188.939 693.012C188.738 692.985 188.194 691.554 187.73 689.83C187.084 687.43 187.073 686.541 187.686 686.032C188.82 685.091 189.299 682.952 188.633 681.802C188.322 681.265 188.318 679.819 188.624 678.588C189.119 676.597 189.126 675.789 188.646 675.676C188.564 675.656 188.527 674.941 188.566 674.086C188.605 673.231 188.589 671.327 188.53 669.855C188.471 668.383 188.618 666.198 188.857 665C189.095 663.802 189.155 662.596 188.989 662.32C188.824 662.044 188.926 661.265 189.217 660.589C189.507 659.912 189.646 659.193 189.524 658.991C189.403 658.789 189.609 657.471 189.983 656.062C190.356 654.654 190.612 653.418 190.55 653.315C190.489 653.213 190.763 651.273 191.158 649.004C191.893 644.792 191.509 643.556 189.368 643.248C188.246 643.086 183.388 647.376 182.65 649.18C182.356 649.9 181.754 650.706 181.312 650.971C180.47 651.477 178.613 654.544 178.88 654.988C178.965 655.13 178.179 657.7 177.133 660.701C175.342 665.84 174.585 670.126 174.775 674.055C174.821 674.998 174.807 676.14 174.745 676.594C174.601 677.636 174.595 680.859 174.735 681.22C174.998 681.892 174.383 682.512 173.711 682.252C171.828 681.523 171.157 675.25 172.082 667.021C172.208 665.901 172.056 665.063 171.73 665.09C170.769 665.171 170.713 663.492 171.649 662.63C172.132 662.185 172.672 660.877 172.848 659.725C173.024 658.572 173.244 657.47 173.337 657.275C173.431 657.08 173.936 655.069 174.46 652.806C174.985 650.543 175.532 648.286 175.676 647.791C176.45 645.141 176.697 643.972 176.54 643.71C176.444 643.551 176.665 642.494 177.031 641.364C177.398 640.233 177.612 639.166 177.509 638.994C177.232 638.533 177.819 637.261 178.928 635.923C179.56 635.159 179.806 634.13 179.63 632.986C179.481 632.017 179.446 630.725 179.552 630.114C179.802 628.678 179.566 628.328 178.701 628.848C178.317 629.078 177.945 629.172 177.875 629.056C177.805 628.939 177.912 628.405 178.113 627.869C178.337 627.269 178.06 626.199 177.394 625.09C176.798 624.098 176.47 623.039 176.665 622.736C176.86 622.434 176.66 621.869 176.221 621.481C175.344 620.705 176.123 619.084 177.544 618.729C178.505 618.489 179.027 616.808 178.236 616.501C177.548 616.235 174.614 618.514 174.507 619.397C174.461 619.786 173.506 620.179 171.616 620.584C170.064 620.917 168.385 621.435 167.885 621.736C166.687 622.455 165.429 625.193 166.396 624.974C167.375 624.753 167.162 625.699 166.088 626.344C165.437 626.735 165.384 627.004 165.889 627.346C166.269 627.603 166.793 627.804 167.055 627.793C167.317 627.782 167.489 628.124 167.437 628.553C167.365 629.154 166.992 629.431 165.817 629.755C164.004 630.256 162.643 629.133 163.786 628.081C164.355 627.556 164.349 627.493 163.757 627.803C162.361 628.535 159.703 626.148 161.027 625.352C161.21 625.243 162.075 623.823 162.951 622.198C164.202 619.876 164.769 619.212 165.601 619.096C166.311 618.997 166.967 618.569 167.591 617.801C168.914 616.172 167.892 614.584 165.747 614.936C164.875 615.078 163.659 615.175 163.045 615.15C162.432 615.126 161.558 615.45 161.103 615.87C160.358 616.559 160.22 616.486 159.707 615.134C159.394 614.308 158.99 613.268 158.81 612.822C158.629 612.376 158.521 611.694 158.569 611.306C158.619 610.909 158.281 610.516 157.796 610.405C157.098 610.247 157.139 610.023 158.015 609.227C159.642 607.747 158.488 607.087 155.734 607.921C153.408 608.625 153.392 608.621 154.202 607.473C154.653 606.835 155.384 606.086 155.828 605.81C156.659 605.292 156.557 604.346 155.724 604.846C155.468 605 155.158 604.959 155.036 604.756C154.913 604.552 155.652 603.882 156.676 603.266C158.038 602.448 158.447 601.994 158.198 601.58C157.76 600.85 156.739 601.121 153.96 602.702C150.933 604.423 150.495 603.566 153.06 600.94C156.416 597.504 157.911 595.3 157.429 594.498C156.813 593.474 152.116 595.518 151.801 596.948C151.688 597.458 151.212 597.971 150.743 598.088C149.493 598.4 150.105 599.021 151.475 598.83C152.701 598.658 153.655 599.536 152.8 600.05C151.721 600.698 149.949 600.65 149.887 599.971C149.845 599.52 149.686 599.478 149.444 599.853C148.84 600.788 143.292 604.196 143.044 603.784C142.923 603.582 142.57 603.706 142.26 604.061C141.95 604.415 141.465 604.971 141.182 605.295C140.899 605.62 140.131 605.815 139.475 605.728C138.511 605.601 138.165 605.756 137.667 606.533C137.329 607.063 136.362 607.896 135.519 608.385C134.03 609.249 134.012 609.244 134.918 608.216C135.527 607.525 135.605 607.178 135.144 607.217C134.679 607.256 134.472 607 134.542 606.47C134.725 605.078 134.218 604.802 132.165 605.176C130.013 605.568 127.83 604.972 128.95 604.298C129.294 604.091 129.839 603.445 130.16 602.861C130.731 601.822 130.715 601.794 129.41 601.557C128.316 601.358 128.12 601.149 128.325 600.399C128.519 599.685 128.447 599.559 128.001 599.827C127.679 600.021 127.4 599.852 127.362 599.441C127.313 598.914 126.865 598.884 125.756 599.331C123.873 600.09 122.373 599.553 122.96 598.327C123.453 597.296 126.764 596.189 127.879 596.682C128.3 596.868 128.847 596.707 129.227 596.286C129.579 595.896 129.661 595.497 129.41 595.4C129.159 595.303 129.503 594.404 130.175 593.403C131.263 591.782 131.292 591.475 130.439 590.597L129.482 589.612L130.928 589.931C132.63 590.307 133.578 589.486 133.415 587.776C133.339 586.98 133.582 586.51 134.145 586.37C134.752 586.218 134.849 585.91 134.489 585.271L133.989 584.384L135.22 584.778C135.898 584.995 136.73 585.005 137.069 584.801C137.908 584.297 139.169 581.178 138.511 581.233C138.223 581.257 135.418 582.664 132.278 584.36C128.188 586.568 125.963 587.541 124.428 587.79C123.25 587.982 122.013 588.296 121.678 588.488C121.344 588.68 119.777 589.057 118.195 589.325C115.071 589.855 112.062 591.407 110.364 593.363C109.632 594.206 102.492 598.717 87.0218 608.113C65.9906 620.886 59.7687 624.995 58.2164 627.136C57.893 627.582 56.7018 628.649 55.5693 629.508C52.9357 631.503 51.1747 631.525 50.5199 629.569C49.4765 626.453 51.1281 624.977 62.8633 618.535C66.2708 616.665 69.806 614.906 70.7194 614.628C72.9799 613.938 100.497 597.377 103.719 594.766C105.126 593.627 108.317 591.343 110.81 589.691C114.725 587.096 115.789 586.568 118.619 585.811C126.316 583.752 130.722 581.576 134.767 577.837C136.103 576.602 137.89 575.303 138.74 574.95C140.416 574.252 144.199 570.804 145.408 568.871C145.823 568.209 146.451 567.594 146.805 567.504C147.159 567.415 147.855 566.899 148.351 566.358C149.073 565.571 149.086 565.227 148.416 564.634C147.76 564.054 147.76 563.849 148.413 563.686C148.871 563.571 149.336 563.626 149.445 563.808C149.748 564.313 150.968 563.429 151.29 562.47C151.594 561.566 153.299 560.729 153.649 561.312C153.763 561.502 154.844 561.014 156.052 560.228C157.259 559.441 158.506 558.776 158.821 558.749C159.137 558.723 160.676 557.757 162.241 556.603C163.806 555.449 165.804 554.276 166.681 553.995C175.127 551.292 184.112 546.619 185.327 544.297C186.537 541.981 187.232 541.501 188.793 541.899C189.885 542.178 190.676 542.003 192.03 541.183C194.642 539.603 194.908 538.94 193.555 537.382C192.924 536.655 191.669 535.667 190.767 535.186C188.579 534.02 188.705 532.855 191.18 531.368L192.992 530.279L194.882 533.806C196.529 536.879 196.871 537.274 197.538 536.874C197.958 536.621 198.274 536.105 198.239 535.727C198.205 535.349 198.736 534.554 199.42 533.961C200.535 532.995 200.573 532.762 199.779 531.716C198.624 530.193 199.002 526.449 200.397 525.592C201.816 524.719 202.637 525.142 203.887 527.387C205.079 529.527 205.821 529.625 205.779 527.637C205.765 526.952 206.029 526.226 206.366 526.024C206.704 525.821 207.069 524.978 207.178 524.15C207.508 521.651 208.227 519.883 209.141 519.324C209.825 518.907 210.044 519.011 210.185 519.822C210.284 520.387 210.736 521.736 211.189 522.82L212.015 524.791L213.205 523.724C213.86 523.137 214.493 522.23 214.612 521.708C215.002 520 215.693 520.83 215.465 522.732C215.165 525.226 215.325 525.345 217.056 523.919C218.296 522.897 218.831 522.735 220.313 522.93C221.288 523.058 223.106 522.88 224.353 522.533C226.415 521.96 226.638 521.814 226.833 520.912C226.95 520.367 226.64 519.345 226.143 518.641C225.129 517.206 225.259 513.022 226.365 511.496C227.314 510.188 228.896 509.344 229.261 509.952C229.465 510.29 229.859 510.209 230.389 509.719C230.857 509.286 231.313 509.148 231.461 509.394C231.843 510.029 231.083 513.189 230.46 513.563C229.625 514.065 228.533 516.863 228.736 517.983C228.836 518.536 229.372 519.202 229.929 519.462C230.766 519.854 231.166 519.738 232.254 518.791C232.977 518.162 233.838 517.469 234.169 517.251C234.535 517.009 234.508 516.63 234.1 516.277C233.362 515.64 234.13 512.922 235.279 512.104C235.656 511.836 236.205 511.449 236.499 511.245C236.868 510.988 237.388 511.553 238.188 513.078C238.91 514.455 239.531 515.17 239.843 514.983C240.118 514.818 240.48 514.91 240.647 515.189C240.886 515.586 241.627 515.234 244.099 513.551C247.223 511.423 247.251 511.414 247.808 512.34C248.166 512.936 248.068 513.763 247.538 514.63L246.707 515.988L248.092 515.942C249.331 515.902 249.672 515.701 251.303 514.054C252.307 513.041 253.43 512.125 253.799 512.018C254.612 511.782 255.878 513.727 255.397 514.473C255.027 515.047 257.34 518.017 258.285 518.181C259.061 518.316 262.168 515.144 261.822 514.569C261.373 513.822 262.756 512.23 264.742 511.209C266.256 510.43 266.596 510.421 266.915 511.151C267.26 511.94 267.489 511.892 269.496 510.606C271.263 509.474 271.896 508.753 272.698 506.959C273.247 505.73 274.059 504.513 274.502 504.256C275.776 503.517 277.989 503.825 279.119 504.9C280.129 505.86 280.216 505.847 282.701 504.354C284.102 503.512 285.678 502.257 286.203 501.564C286.729 500.872 288.043 499.641 289.123 498.828C292.696 496.144 293.901 494.347 293.467 492.355C292.925 489.865 294.364 487.264 297.24 485.536C299.683 484.068 300.867 483.797 303.379 484.127C305.355 484.387 306.76 483.698 307.145 482.279C307.294 481.73 307.997 480.604 308.707 479.776C309.968 478.305 310.043 478.28 311.989 478.647C313.33 478.899 314.225 479.428 314.728 480.266C315.372 481.338 315.677 481.429 316.93 480.924C317.73 480.601 318.776 479.976 319.254 479.534C320.588 478.301 322.699 477.68 322.774 478.499C322.852 479.343 325.779 480.32 327.066 479.931C327.577 479.776 328.421 479.888 328.941 480.179C329.461 480.47 330.269 480.632 330.736 480.538C333.745 479.935 333.884 479.977 334.989 481.816C336.313 484.019 338.872 484.989 341.098 484.13C343.578 483.174 344.462 483.658 344.025 485.731L343.652 487.503L345.051 487.687C346.272 487.848 347.411 487.356 353.945 483.852C360.342 480.421 361.505 479.683 361.897 478.81C363.55 475.121 367.968 471.493 373.861 468.985C377.396 467.481 378.403 467.233 379.583 467.58C380.37 467.812 381.976 467.875 383.152 467.72C384.328 467.565 386.093 467.35 387.073 467.241C391.497 466.75 397.325 464.477 406.841 459.532C416.23 454.653 421.274 452.26 424.843 450.994C426.567 450.382 428.899 449.499 430.026 449.033C431.152 448.566 432.439 448.153 432.886 448.115C433.333 448.078 435.996 446.832 438.805 445.347C445.268 441.929 447.881 441.343 448.923 443.078C449.595 444.196 449.76 444.207 451.849 443.269C453.066 442.722 461.968 437.246 471.631 431.101C481.294 424.956 492.441 417.964 496.401 415.562C504.941 410.383 525.527 398.389 526.027 398.301C526.22 398.267 531.859 395.075 538.56 391.208C545.26 387.341 551.931 383.544 553.383 382.771C554.836 381.998 560.236 378.976 565.384 376.057C574.065 371.133 574.705 370.708 574.221 370.196C573.49 369.424 575.482 367.819 579.681 365.798C581.55 364.899 588.116 361.389 594.271 358C609.374 349.682 611.51 348.607 612.634 348.755C613.165 348.825 614.27 348.49 615.09 348.011C615.91 347.531 620.872 344.787 626.116 341.912C631.36 339.038 636.283 336.314 637.056 335.86C638.375 335.084 644.312 332.058 650.397 329.058C651.876 328.329 655.707 326.289 658.91 324.525C664.021 321.711 664.725 321.222 664.662 320.537C664.571 319.539 665.299 319.104 666.48 319.451C667.285 319.688 668.411 319.109 674.979 315.072C682.2 310.635 682.607 310.435 683.762 310.755C685.086 311.123 685.425 310.948 696.532 304.144C701.51 301.095 702.072 300.65 702.261 299.617C702.46 298.532 702.917 298.208 710.972 293.457C718.66 288.924 719.61 288.265 720.889 286.58C723.552 283.073 734.874 275.933 751.079 267.542C757.313 264.315 760.422 262.523 761.113 261.759C762.602 260.116 765.391 258.578 767.517 258.227C768.867 258.005 770.018 257.461 771.596 256.298C773.613 254.812 773.962 254.7 775.83 254.946C777.786 255.204 778.022 255.119 781.886 252.749C785.959 250.252 788.405 249.145 789.799 249.17C790.271 249.178 790.782 248.874 791.129 248.379C791.44 247.935 792.739 247.114 794.024 246.548C795.306 245.984 799.154 244.121 802.577 242.409C808.013 239.689 808.858 239.164 809.268 238.252C809.664 237.373 810.542 236.798 814.829 234.606C817.629 233.175 820.969 231.377 822.251 230.61C823.534 229.843 826.135 228.715 828.032 228.101C829.929 227.488 833.256 226.142 835.425 225.111C840.424 222.735 843.764 221.369 844.785 221.283C845.224 221.246 846.928 221.343 848.57 221.499C852.061 221.831 852.908 221.609 856.796 219.34C859.974 217.486 860.982 217.45 860.42 219.211C860.18 219.964 860.275 220.338 860.697 220.303C861.966 220.196 861.702 220.922 860.055 222.065C858.51 223.137 858.403 223.385 858.701 225.206C858.999 227.018 859.123 227.181 860.197 227.167C860.841 227.158 861.852 226.745 862.444 226.249C863.249 225.574 864.093 225.403 865.799 225.57C867.435 225.731 867.962 225.974 867.667 226.431C867.21 227.14 864.903 228.218 863.876 228.202C863.212 228.191 861.258 230.347 861.786 230.507C861.939 230.553 862.039 231.092 862.008 231.704C861.958 232.683 862.131 232.772 863.458 232.45C864.287 232.248 867.682 230.559 871.002 228.695C874.322 226.832 877.314 225.284 877.65 225.256C878.675 225.169 878.734 225.869 877.751 226.459C876.632 227.132 873.799 230.437 874.023 230.81C874.111 230.955 872.476 231.979 870.39 233.083C868.011 234.343 866.572 235.303 866.53 235.656C866.419 236.574 871.838 234.454 877.777 231.255C879.357 230.404 882.589 228.664 884.96 227.389C887.331 226.114 892.061 223.543 895.47 221.676C901.603 218.317 901.69 218.285 903.626 218.637C904.702 218.832 905.766 219.298 905.99 219.671C906.555 220.611 909.828 220.223 912.733 218.871C914.143 218.215 915.733 217.818 916.528 217.922C918.746 218.214 921.534 216.994 937.046 208.943C943.146 205.777 948.406 203.225 948.736 203.273C950.124 203.472 950.969 204.91 950.558 206.375C950.158 207.802 949.954 207.964 944.701 211.013C940.024 213.728 939.381 214.2 940.13 214.37C940.61 214.479 941.569 214.365 942.262 214.117C942.955 213.868 944.335 213.742 945.329 213.836L947.135 214.007L945.542 214.964C943.966 215.911 943.96 215.937 945.004 217.281C945.965 218.518 945.959 218.732 944.951 219.649C944.311 220.232 942.532 221.097 940.74 221.698C939.034 222.269 937.049 223.092 936.328 223.525C935.057 224.288 934.242 225.554 934.617 226.178C934.873 226.604 937.462 225.916 939.786 224.806C942.157 223.673 942.363 223.649 943.239 224.405C943.887 224.964 943.711 225.138 940.604 227.012C936.506 229.485 935.403 230.852 938.594 229.507C939.812 228.993 941.266 228.239 941.825 227.833C942.384 227.426 943.514 227.052 944.337 227.002C945.159 226.952 945.786 226.836 945.731 226.744C945.675 226.651 946.413 226.337 947.371 226.045C948.328 225.753 950.923 224.736 953.137 223.784C956.559 222.314 957.437 222.115 958.996 222.461C960.005 222.685 961.473 222.632 962.257 222.342C963.042 222.053 963.765 221.951 963.865 222.117C964.09 222.491 961.934 224.381 959.508 225.937C958.5 226.583 957.321 227.617 956.886 228.236C956.451 228.854 955.427 229.689 954.61 230.092C953.792 230.495 953.146 230.924 953.173 231.047C953.241 231.352 956.008 232.228 957.936 232.554C960.28 232.95 960.181 233.324 957.354 234.749C951.563 237.666 951.169 237.966 950.713 239.784C950.387 241.086 949.978 241.615 948.987 242.023C948.211 242.342 947.33 243.147 946.796 244.023C945.695 245.833 943.379 247.267 940.018 248.22C937.153 249.033 936.575 249.629 938.342 249.951C938.992 250.069 939.67 250.409 939.849 250.707C940.039 251.024 942.568 250.842 945.962 250.266C949.145 249.726 952.194 249.365 952.736 249.464C954.123 249.716 953.834 250.797 951.989 252.256C950.735 253.249 949.583 253.64 946.241 254.207C941.548 255.003 927.591 259.451 925.088 260.948C924.191 261.486 922.606 262.569 921.567 263.356C920.091 264.476 919.294 264.798 917.921 264.834C915.925 264.885 912.206 266.855 912.573 267.666C913.022 268.654 913.89 269.532 914.513 269.626C915.912 269.837 915.395 270.444 912.344 272.172C909.003 274.064 908.676 274.348 909.36 274.765C910.159 275.253 917.118 275.395 917.877 274.939C918.298 274.686 918.738 274.64 918.856 274.836C918.974 275.032 920.368 275.338 921.954 275.516C924.329 275.782 924.753 275.976 924.357 276.615C923.409 278.149 922.107 279.019 920.361 279.285C918.071 279.633 918.134 279.572 918.345 281.211C918.573 282.982 917.411 283.722 913.463 284.319C904.742 285.637 905.063 285.553 904.657 286.638C904.45 287.192 904.487 287.521 904.74 287.37C905.163 287.116 910.569 288.468 910.823 288.891C911.168 289.465 908.234 292.365 906.729 292.937C905.82 293.283 904.209 294.021 903.15 294.578C902.09 295.136 900.366 295.954 899.317 296.398C898.173 296.883 896.967 297.721 896.299 298.495C895.393 299.546 894.987 299.777 894.112 299.74C893.52 299.715 893.038 299.807 893.039 299.945C893.041 300.313 885.851 301.122 885.644 300.778C885.458 300.47 880.754 301.277 879.961 301.754C879.704 301.908 878.259 302.21 876.749 302.424C872.761 302.99 870.243 304.615 869.253 307.262C868.694 308.757 867.896 309.781 866.329 311.012C863.527 313.215 862.951 314.313 864.454 314.586C865.051 314.695 865.7 315.051 865.897 315.378C866.31 316.066 864.779 316.851 861.415 317.675C859.13 318.236 858.981 318.422 860.645 318.641C861.258 318.722 861.694 318.962 861.615 319.174C861.394 319.764 855.145 320.969 851.557 321.114C847.862 321.264 846.1 322.022 847.214 322.983C847.722 323.422 847.713 323.655 847.182 323.787C846.771 323.89 845.571 324.349 844.514 324.808C843.458 325.266 841.336 325.921 839.798 326.263C837.73 326.724 835.786 327.58 832.321 329.56C829.746 331.031 826.926 332.396 826.054 332.593C825.016 332.828 822.704 334.093 819.361 336.253C816.553 338.068 813.23 339.979 811.977 340.5C810.543 341.095 809.608 341.688 809.454 342.1C809.1 343.045 806.557 344.463 804.316 344.965C802.928 345.276 799.942 346.82 793.742 350.436C785.509 355.237 785.058 355.553 784.186 357.116C783.504 358.339 782.092 359.621 778.65 362.142C776.109 364.003 773.301 366.277 772.411 367.194C771.522 368.11 768.467 370.384 765.624 372.246C762.78 374.108 759.977 376.025 759.395 376.506C758.813 376.987 756.174 378.889 753.53 380.733C750.887 382.577 748.615 384.255 748.481 384.463C747.07 386.649 707.884 410.077 691.02 418.816C687.963 420.4 683.512 422.721 681.128 423.975C675.192 427.095 673.432 428 669.749 429.824L666.574 431.396L668.45 431.354L670.326 431.312L666.591 433.297C664.258 434.537 663.04 435.354 663.347 435.473C663.617 435.577 663.976 435.45 664.144 435.189C664.312 434.929 664.538 434.864 664.648 435.046C664.759 435.231 660.067 438.236 654.008 441.862C648.047 445.429 640.363 450.322 636.934 452.737C628.965 458.348 620.811 463.817 607.122 472.734C594.644 480.862 594.276 481.125 591.605 483.827C589.856 485.596 585.406 488.353 552.116 508.288C500.618 539.128 490.842 544.757 476.304 551.933C473.75 553.194 469.811 555.181 467.549 556.349C465.288 557.517 463.276 558.488 463.077 558.507C462.361 558.576 451.068 565.37 450.173 566.27C449.636 566.81 449.477 567.337 449.788 567.541C450.513 568.016 449.673 568.849 447.398 569.915C445.821 570.653 438.858 574.811 429.282 580.733C428.265 581.362 425.116 583.241 422.284 584.909C419.452 586.577 416.499 588.426 415.722 589.019C414.141 590.224 413.782 590.112 414.553 588.654C415.026 587.76 414.96 587.738 413.818 588.41C413.128 588.816 412.077 589.084 411.482 589.006C410.857 588.923 410.507 589.04 410.652 589.282C410.79 589.512 410.651 589.722 410.342 589.748C410.033 589.774 409.75 590.05 409.713 590.362C409.597 591.328 406.289 592.819 405.594 592.219C405.256 591.928 404.682 591.867 404.32 592.085C403.958 592.302 403.425 592.326 403.137 592.137C402.849 591.948 401.762 592.252 400.721 592.812C399.087 593.693 398.924 593.898 399.522 594.317C400.514 595.012 402.996 595.4 403.71 594.972C404.504 594.495 406.928 595.363 406.84 596.093C406.802 596.405 406.482 596.835 406.128 597.047C404.869 597.804 405.389 598.564 408.15 600.002C409.69 600.804 410.982 601.554 411.023 601.668C411.063 601.782 412.091 602.317 413.307 602.857C414.58 603.422 415.82 604.387 416.231 605.133C416.623 605.845 416.737 606.276 416.483 606.091C415.724 605.538 409.84 606.409 406.149 607.622L402.702 608.754L402.646 609.847C402.602 610.721 402.793 610.937 403.603 610.925C404.719 610.909 404.74 611.566 403.632 611.843C403.241 611.94 402.85 612.858 402.747 613.922C402.578 615.653 402.371 615.94 400.477 617.078C399.331 617.767 398.364 618.575 398.328 618.875C398.248 619.544 395.851 620.476 394.436 620.388C391.609 620.214 391.368 621.965 393.725 625.552C394.879 627.307 395.08 627.96 394.624 628.467C394.3 628.826 394.192 629.18 394.383 629.254C395 629.493 392.735 630.625 391.979 630.456C391.18 630.277 385.066 631.874 383.999 632.539C383.636 632.766 384.676 633.042 386.31 633.152C389.765 633.385 389.34 633.903 385.19 634.517C382.027 634.985 377.723 636.791 378.135 637.477C378.269 637.7 378.928 637.806 379.598 637.712C381.36 637.466 380.922 637.971 378.792 638.64C377.785 638.956 375.491 640.044 373.693 641.057C370.93 642.613 370.256 643.182 369.337 644.733C368.289 646.503 368.089 646.646 363.663 648.798C357.425 651.831 357.466 651.802 358.218 652.658C358.622 653.117 359.335 653.209 360.148 652.906C362.599 651.993 360.696 653.671 357.507 655.235C354.631 656.646 354.424 656.822 354.621 657.687C354.737 658.2 355.137 658.882 355.51 659.203C356.09 659.705 356.447 659.59 358.019 658.396C359.686 657.13 360.027 657.043 361.809 657.435C363.124 657.723 364.025 658.294 364.553 659.172C365.331 660.467 365.322 660.486 363.482 661.346C362.462 661.823 361.082 662.374 360.416 662.572C359.375 662.881 359.285 663.063 359.774 663.876C360.086 664.396 360.395 665.382 360.461 666.068C360.526 666.754 362.006 669.863 363.75 672.977C365.54 676.174 366.81 678.931 366.669 679.31C366.247 680.438 364.611 680.79 363.483 679.996C362.753 679.482 362.277 678.612 361.975 677.245C361.733 676.145 361.141 674.589 360.659 673.787C359.571 671.976 356.638 669.09 355.638 668.847C355.227 668.747 355.073 668.553 355.294 668.416C355.515 668.278 355.327 668.194 354.874 668.227C354.195 668.278 354.089 668.043 354.263 666.877C354.393 666.006 354.091 664.956 353.475 664.136C352.55 662.905 352.384 662.874 351.226 663.71C350.288 664.388 349.805 664.467 349.297 664.029C348.924 663.707 347.942 663.597 347.114 663.784C344.954 664.274 342.717 666.959 342.902 668.842C342.978 669.612 342.723 670.441 342.336 670.685C341.947 670.93 342.378 671.027 343.3 670.903C344.713 670.712 350.97 671.374 351.188 671.737C351.458 672.187 348.21 673.469 345.85 673.844C342.532 674.371 340.132 675.535 341.652 675.88C342.939 676.172 342.01 677.878 339.837 679.215C338.946 679.763 338.006 680.547 337.748 680.956C337.445 681.435 336.595 681.853 335.364 682.128C333.299 682.591 331.895 683.227 333.086 683.162C333.459 683.141 334.284 683.663 334.92 684.321C335.628 685.054 336.338 685.359 336.753 685.109C337.125 684.886 337.631 685.036 337.875 685.443C338.123 685.855 338.631 685.998 339.019 685.764C339.403 685.534 339.868 685.595 340.051 685.9C340.257 686.242 339.948 686.718 339.25 687.138C338.36 687.672 338.084 688.405 337.968 690.54C337.886 692.037 337.334 694.073 336.74 695.064C336.146 696.055 335.649 697.364 335.635 697.971C335.604 699.302 335.185 699.737 333.563 700.121L333.563 700.121ZM322.949 693.49C322.727 692.897 322.369 692.744 321.884 693.036C321.409 693.321 321.354 693.809 321.728 694.432C322.425 695.592 323.443 694.808 322.949 693.49ZM330.664 682.121C329.963 681.607 328.892 682.095 329.285 682.749C329.479 683.072 329.969 683.136 330.375 682.893C330.781 682.649 330.91 682.302 330.664 682.121ZM304.928 685.181C304.597 684.768 304.509 684.32 304.732 684.186C305.287 683.852 304.633 681.934 303.863 681.636C303.385 681.451 302.939 681.775 301.951 683.024C300.911 684.34 300.819 684.726 301.474 685.029C301.92 685.236 302.692 685.799 303.189 686.281C304.308 687.365 305.882 686.371 304.928 685.181ZM375.179 637.373C375.246 636.817 373.925 637.066 372.608 637.857C372.116 638.152 371.865 638.644 372.048 638.949C372.416 639.562 375.077 638.222 375.179 637.373ZM382.55 630.058C382.474 629.932 381.402 629.453 380.168 628.994C378.039 628.202 376.512 628.137 376.254 628.827C376.013 629.472 377.493 629.987 378.539 629.621C379.289 629.36 379.685 629.499 379.814 630.069C379.924 630.552 380.412 630.852 380.989 630.79C382.139 630.668 382.745 630.383 382.55 630.058ZM492.826 536.186C492.778 536.106 492.367 536.134 491.912 536.247C491.458 536.361 491.183 536.615 491.301 536.813C491.42 537.01 491.831 536.983 492.216 536.752C492.6 536.521 492.875 536.267 492.826 536.186ZM496.127 534.045C495.495 534.304 494.659 534.811 494.269 535.171C493.879 535.532 494.397 535.319 495.419 534.7C496.441 534.08 496.76 533.785 496.127 534.045ZM666.386 431.611C666.267 431.414 665.914 431.537 665.6 431.885C665.286 432.233 665.069 432.584 665.117 432.664C665.165 432.744 665.519 432.62 665.903 432.39C666.287 432.159 666.505 431.809 666.386 431.611ZM489.864 537.306C489.238 537.562 488.189 538.189 487.533 538.7C486.876 539.21 487.388 539.001 488.67 538.234C489.952 537.468 490.489 537.05 489.864 537.306L489.864 537.306ZM402.342 588.407C402.208 587.483 398.763 588.673 395.518 590.765C394.406 591.482 394.361 591.639 395.159 592.013C396.464 592.623 402.513 589.586 402.342 588.407ZM791.576 251.417C791.353 251.331 790.752 251.512 790.24 251.82C789.728 252.128 789.524 252.463 789.787 252.564C790.049 252.666 790.65 252.485 791.122 252.161C791.594 251.838 791.798 251.503 791.576 251.417ZM773.723 259.44C777.88 255.423 774.911 256.675 770.514 260.793C769.566 261.681 768.869 262.538 768.965 262.697C769.245 263.163 771.389 261.696 773.723 259.44ZM363.542 503.248C363.685 502.867 363.555 502.655 363.194 502.688C362.388 502.756 356.677 506.845 356.891 507.201C357.288 507.862 363.108 504.404 363.539 503.251L363.542 503.248ZM376.455 494.398C376.333 494.194 375.394 494.531 374.37 495.147C373.345 495.762 372.608 496.432 372.73 496.636C372.852 496.84 373.791 496.503 374.815 495.887C375.839 495.272 376.577 494.602 376.455 494.398ZM373.757 493.542C373.5 493.443 371.557 493.783 369.439 494.298C366.268 495.07 365.511 495.394 365.158 496.133C364.117 498.307 365.507 498.273 369.824 496.019C371.018 495.395 372.496 494.624 373.109 494.304C373.722 493.984 374.013 493.642 373.757 493.542ZM356.401 503.39C357.259 502.837 351.752 504.615 350.652 505.246C348.197 506.654 347.469 507.333 347.809 507.899C348.12 508.417 348.569 508.229 350.847 506.626C352.379 505.548 353.731 504.828 354.016 504.938C354.289 505.044 354.766 504.849 355.076 504.506C355.385 504.162 355.982 503.66 356.401 503.39ZM390.499 482.964C390.384 482.773 390.019 482.639 389.687 482.667C389.355 482.695 388.891 482.397 388.656 482.006C388.191 481.232 389.709 479.517 390.951 479.412C391.348 479.378 392.542 478.905 393.605 478.36C394.667 477.815 395.883 477.384 396.306 477.402C397.492 477.453 415.903 467.96 415.814 467.345C415.766 467.015 417.01 466.163 419.431 464.869C422.834 463.05 423.025 462.893 421.873 462.859C420.374 462.814 419.441 461.713 419.969 460.61C420.407 459.694 426.557 456.391 428.951 455.786C429.765 455.58 432.854 453.957 435.814 452.178C440.545 449.336 441.085 448.92 440.282 448.737C439.779 448.623 438.987 448.759 438.522 449.039C438.056 449.319 437.419 449.449 437.106 449.328C436.773 449.199 435.87 449.612 434.929 450.324C433.995 451.03 432.719 451.616 431.889 451.722C431.103 451.821 429.454 452.499 428.225 453.227C426.996 453.956 424.607 454.965 422.917 455.469C419.053 456.623 407.452 463.268 404.372 466.094C402.672 467.652 401.975 468.048 399.811 468.679C398.406 469.089 396.339 470.032 395.217 470.774C393.996 471.582 392.153 472.352 390.63 472.691C388.109 473.251 388.068 473.277 386.462 475.248C384.393 477.789 383.077 478.573 378.941 479.728C376.148 480.509 375.386 480.882 374.376 481.967C372.657 483.814 371.114 484.642 368.24 485.262C365.558 485.841 363.485 485.459 362.743 484.251C361.521 482.259 361.109 482.437 350.184 489.672C343.98 493.781 342.468 494.994 344.102 494.55C344.494 494.444 345.557 494.455 346.464 494.574C348.511 494.844 348.961 494.573 350.73 492.002C352.582 489.313 353.273 489.47 351.989 492.289C351.007 494.443 351.016 494.532 352.254 494.971C353.024 495.244 354.198 495.135 355.202 494.699C356.119 494.299 358.576 493.65 360.66 493.255C362.745 492.86 364.788 492.335 365.199 492.087C366.038 491.584 370.75 490.788 374.455 490.525C375.798 490.43 377.432 490.301 378.086 490.238C379.525 490.1 390.813 483.486 390.499 482.964L390.499 482.964ZM383.906 482.986C382.895 482.853 383.299 482.22 385.079 481.151C386.146 480.509 386.961 480.14 386.89 480.33C386.658 480.951 384.311 483.039 383.906 482.986ZM340.56 497.363C340.692 497.033 341.169 496.426 341.618 496.013C342.067 495.601 341.42 495.911 340.18 496.702C338.842 497.556 337.961 498.376 338.012 498.719C338.113 499.392 340.188 498.288 340.56 497.363ZM329.43 493.832C329.571 492.752 328.445 491.991 327.524 492.545C327.137 492.777 326.936 493.452 327.078 494.044C327.534 495.946 329.175 495.798 329.43 493.832ZM325.59 489.826C325.426 488.111 325.145 488.238 324.064 490.512C323.501 491.697 323.366 492.582 323.727 492.721C324.616 493.065 325.733 491.329 325.59 489.826ZM155.758 591.719C155.477 591.611 154.79 591.8 154.231 592.141C153.404 592.644 153.385 592.748 154.128 592.699C155.329 592.619 156.408 591.971 155.758 591.719ZM154.082 582.075C155.753 579.527 155.856 577.834 154.265 579.1C153.818 579.455 152.833 579.694 152.074 579.632C150.937 579.538 150.332 579.801 148.628 581.131C146.865 582.507 146.743 582.697 147.799 582.429C149.083 582.103 149.349 582.283 150.233 584.075C150.668 584.955 150.952 585.029 151.843 584.492C152.438 584.133 153.446 583.046 154.082 582.075ZM184.945 558.751L183.713 557.027L179.047 559.283C173.784 561.827 173.235 562.245 174.138 563.024C174.605 563.428 175.431 563.273 177.223 562.447C178.569 561.826 180.179 561.388 180.801 561.472C183.179 561.796 185.766 561.577 185.968 561.036C186.084 560.728 185.623 559.699 184.945 558.751ZM171.517 563.627C171.221 563.134 168.698 563.276 167.761 563.839C167.092 564.241 167.137 564.398 168.07 564.91C168.845 565.335 169.535 565.287 170.445 564.743C171.15 564.321 171.633 563.819 171.517 563.627ZM144.042 579.603C143.761 579.495 143.178 579.621 142.747 579.885C142.072 580.297 142.09 580.355 142.877 580.303C144.071 580.224 144.688 579.853 144.042 579.603ZM306.554 709.052C306.556 708.774 305.997 708.486 305.311 708.413C304.626 708.339 304.167 708.45 304.292 708.659C304.417 708.867 303.832 709.079 302.991 709.13C302.15 709.181 301.567 709.398 301.696 709.611C301.824 709.824 301.528 710.399 301.037 710.889C300.547 711.378 300.113 712.016 300.072 712.307C300.029 712.61 298.997 712.917 297.652 713.026C296.362 713.131 294.875 713.329 294.348 713.467C293.82 713.605 293.236 713.462 293.048 713.15C292.861 712.838 292.498 712.709 292.242 712.863C291.986 713.017 291.67 712.966 291.54 712.75C291.411 712.535 291.538 712.339 291.823 712.314C292.275 712.276 291.801 711.427 290.787 710.46C290.096 709.802 290.105 709.186 290.837 707.043C291.461 705.215 292.02 704.506 294.001 703.031C296.519 701.156 299.294 700.304 300.196 701.128C303.007 703.694 303.923 705.029 303.456 705.878C303.036 706.642 303.201 706.672 304.637 706.093C306.203 705.462 306.333 705.505 306.724 706.792C306.953 707.547 307.007 708.478 306.845 708.862C306.662 709.292 306.551 709.365 306.554 709.052L306.554 709.052ZM270.162 728.854C269.765 728.194 269.204 724.96 268.798 720.999C268.627 719.328 268.787 718.419 269.273 718.297C269.676 718.196 270.039 717.843 270.078 717.51C270.125 717.12 269.999 717.142 269.721 717.573C269.443 718.004 269.317 718.026 269.364 717.635C269.436 717.034 270.938 716.406 271.184 716.874C271.254 717.01 271.608 718.531 271.967 720.256C272.327 721.981 272.829 723.752 273.083 724.193C273.709 725.275 273.057 727.24 271.667 728.458C270.782 729.235 270.444 729.323 270.162 728.854ZM271.014 727.634C270.733 727.526 270.411 727.493 270.298 727.56C270.185 727.628 270.193 727.85 270.315 728.054C270.437 728.258 270.76 728.291 271.031 728.128C271.302 727.965 271.294 727.743 271.014 727.634ZM281.731 711.474C280.752 709.125 280.605 708.215 281.199 708.165C281.521 708.138 281.678 707.939 281.549 707.723C281.419 707.508 281.018 707.508 280.658 707.725C280.213 707.992 279.932 707.806 279.782 707.144C279.57 706.214 279.596 706.193 280.348 706.678C280.915 707.043 281.068 707.014 280.894 706.575C280.761 706.239 281.477 706.939 282.486 708.131C284.394 710.388 284.489 711.043 283.064 712.153C282.408 712.664 282.179 712.547 281.731 711.474ZM195.477 756.925C194.866 756.689 195.478 755.724 196.282 755.656C196.956 755.599 197.015 756.471 196.363 756.862C196.137 756.998 195.738 757.026 195.477 756.925ZM230.016 731.654C229.907 731.472 230.088 731.023 230.419 730.656C231.349 729.624 231.545 729.609 231.278 730.59C231.005 731.592 230.324 732.167 230.016 731.654ZM243.183 721.925C243.318 721.427 243.533 720.958 243.661 720.881C243.79 720.804 243.784 721.147 243.648 721.645C243.513 722.142 243.298 722.612 243.17 722.689C243.042 722.765 243.047 722.422 243.183 721.925ZM233.295 727.101C232.849 726.929 232.264 726.409 230.762 724.851C230.592 724.675 230.165 724.422 229.812 724.287C229.392 724.127 229.452 723.853 229.986 723.493C235.35 719.879 235.749 719.648 235.18 720.48C234.854 720.957 234.323 721.369 234.001 721.396C233.678 721.424 233.09 721.894 232.692 722.443C232.164 723.171 232.175 723.486 232.733 723.613C233.266 723.733 233.414 724.007 233.224 724.514C233.023 725.052 233.181 725.031 233.826 724.435C234.819 723.517 234.9 723.571 235.061 725.259C235.18 726.497 234.246 727.47 233.294 727.102L233.295 727.101ZM754.916 408.847C754.996 408.631 755.39 408.376 755.791 408.281C756.233 408.176 756.175 408.33 755.644 408.674C755.162 408.985 754.835 409.063 754.916 408.847L754.916 408.847ZM157.068 766.87C156.783 766.76 156.877 766.473 157.275 766.233C158.093 765.742 158.347 765.892 157.892 766.598C157.724 766.858 157.353 766.981 157.068 766.87ZM416.949 605.417C416.618 605.2 416.55 604.901 416.798 604.752C417.046 604.603 417.399 604.731 417.583 605.036C417.766 605.342 417.834 605.641 417.734 605.702C417.633 605.762 417.28 605.634 416.949 605.417ZM234.041 714.19C231.781 712.697 231.835 709.56 234.152 707.669C235.09 706.904 235.353 706.934 236.305 707.91C236.954 708.576 237.661 708.859 238.067 708.615C239.023 708.041 239.027 708.21 238.132 711.055C237.165 714.13 235.677 715.27 234.041 714.19ZM153.434 760.916C152.723 760.641 153.042 759.414 154.463 756.945C156.153 754.011 161.005 747.66 161.507 747.727C162.015 747.793 161.814 749.896 161.269 750.223C161.011 750.378 160.243 751.861 159.561 753.518C158.88 755.175 158.111 756.658 157.852 756.813C157.593 756.969 157.057 757.733 156.66 758.512C155.971 759.867 154.177 761.203 153.434 760.916ZM167.809 750.246C167.766 749.95 168.242 749.003 168.866 748.14C169.49 747.278 170.212 746.133 170.471 745.594C171.113 744.259 174.403 739.811 175.026 739.437C176.292 738.676 175.401 740.675 172.763 744.514C171.181 746.815 169.861 748.913 169.83 749.175C169.744 749.889 167.9 750.867 167.809 750.246ZM407.587 593.674C407.47 593.48 408.194 592.935 409.195 592.465C411.752 591.262 412.045 591.476 409.739 592.862C408.672 593.503 407.704 593.868 407.587 593.674ZM112.982 770.331C112.73 770.298 112.255 769.824 111.926 769.277C111.402 768.405 111.611 767.966 113.631 765.69C114.897 764.264 115.955 762.687 115.983 762.185C116.011 761.683 116.564 760.954 117.212 760.564C118.699 759.671 119.257 758.893 121.67 754.345C123.496 750.903 125.234 749.088 126.306 749.503C127.323 749.897 127.503 752.418 126.673 754.651C125.62 757.483 123.542 760.376 121.481 761.88C120.654 762.484 119.028 764.332 117.867 765.988C115.883 768.82 114.028 770.469 112.982 770.331ZM671.209 430.914C671.289 430.698 671.683 430.443 672.084 430.348C672.526 430.243 672.469 430.397 671.937 430.741C671.456 431.052 671.128 431.13 671.209 430.914L671.209 430.914ZM143.054 745.996C142.956 745.357 146.048 741.844 147.597 740.835C150.03 739.25 147.556 743.159 144.693 745.425C143.491 746.376 143.132 746.501 143.054 745.996ZM178.062 720.739C177.208 720.179 177.351 719.908 179.315 718.354L180.972 717.042L180.766 718.385C180.518 720.001 178.979 721.34 178.062 720.739ZM173.702 718.093C173.513 717.779 175.391 714.517 175.956 714.177C176.092 714.095 175.917 714.881 175.567 715.923C174.939 717.788 174.103 718.761 173.702 718.093ZM112.028 734.298C111.79 734.206 111.642 734.042 111.699 733.934C113.316 730.887 115.644 729.055 116.368 730.26C117.054 731.401 113.379 734.82 112.028 734.298L112.028 734.298ZM143.338 684.436C143.108 684.054 143.121 683.322 143.366 682.809C143.611 682.297 143.804 680.851 143.795 679.596C143.773 676.62 146.051 670.65 148.154 668.169C149.068 667.092 150.802 665.004 152.008 663.53C153.213 662.056 155.488 659.913 157.062 658.769C158.637 657.624 160.076 656.372 160.26 655.987C160.579 655.321 165.209 651.508 167.594 649.948C168.389 649.428 169.065 649.395 169.907 649.835C172.213 651.041 171.278 652.621 165.118 657.925C159.549 662.72 157.296 665.223 156.276 667.749C155.753 669.045 155.13 670.225 154.891 670.371C154.652 670.516 153.877 671.873 153.167 673.385C152.457 674.897 151.245 676.869 150.474 677.768C149.704 678.667 148.699 680.198 148.241 681.169C147.181 683.421 144.001 685.54 143.338 684.436ZM149.461 661.664C147.165 662.65 145.741 659.316 147.854 657.898C152.48 654.792 156.111 654.197 153.603 656.956C153.025 657.59 152.112 658.8 151.573 659.643C151.035 660.487 150.084 661.396 149.461 661.664ZM150.757 651.183C150.832 650.584 151.294 649.852 151.785 649.557C152.647 649.04 152.663 649.063 152.278 650.269C152.059 650.955 151.597 651.687 151.25 651.895C150.737 652.204 150.645 652.072 150.757 651.183ZM143.718 652.371C143.353 651.763 145.003 650.239 147.162 649.191C149.505 648.054 149.956 648.024 149.309 649.048C148.653 650.085 144.005 652.848 143.718 652.371L143.718 652.371ZM161.924 636.103C161.391 636 161.017 635.749 161.093 635.546C161.281 635.044 164.565 634.327 164.81 634.735C165.134 635.275 162.962 636.305 161.924 636.103ZM173.46 629.176C172.611 628.983 172.638 628.887 173.67 628.419C174.321 628.124 175.064 628.039 175.323 628.231C175.999 628.731 174.609 629.436 173.46 629.176ZM147.091 637.986C145.551 637.637 145.816 634.608 147.56 632.648C149.202 630.801 149.352 630.583 151.023 627.627C151.969 625.953 152.475 625.43 153.07 625.508C153.666 625.586 153.728 626.003 153.323 627.197C152.861 628.558 152.939 628.868 153.871 629.389C155.413 630.251 155.288 630.887 152.994 633.852C150.743 636.76 148.527 638.312 147.091 637.986ZM97.7319 664.926C97.5191 664.844 97.7296 664.246 98.1996 663.598C98.6696 662.949 98.9848 662.303 98.9001 662.162C98.8153 662.021 99.2724 661.689 99.9159 661.425C100.559 661.16 102.13 659.862 103.405 658.54C104.68 657.217 105.856 656.153 106.017 656.174C106.404 656.225 106.375 656.267 104 659.047C101.276 662.237 98.2109 665.111 97.7319 664.926ZM813.133 233.191C812.342 233.087 812.275 232.531 813.002 232.094C813.386 231.863 813.851 231.924 814.035 232.23C814.382 232.808 813.925 233.295 813.133 233.191ZM88.5849 667.145C88.5309 667.055 88.6345 666.753 88.8149 666.473C88.9953 666.193 89.249 666.141 89.3786 666.357C89.5083 666.572 89.4048 666.875 89.1487 667.029C88.8926 667.183 88.6389 667.235 88.5849 667.145ZM78.0206 667.818C76.5884 668.32 76.491 666.946 77.8677 665.662C78.5444 665.031 79.9047 664.252 80.9328 663.907C81.9495 663.566 84.1454 662.473 85.8127 661.477C88.9024 659.631 90.566 659.125 90.453 660.066C90.3898 660.592 79.8001 667.195 78.0206 667.818ZM108.282 644.499C108.672 643.552 110.298 642.106 110.533 642.497C110.776 642.902 109.909 643.969 108.791 644.641C108.33 644.917 108.132 644.862 108.282 644.499ZM111.372 641.151C111.757 639.819 114.14 637.952 114.561 638.653C114.683 638.857 114.639 639.139 114.463 639.28C114.286 639.422 113.749 639.833 113.269 640.194C112.789 640.556 112.081 641.214 111.695 641.658C111.012 642.442 111.003 642.429 111.372 641.151L111.372 641.151ZM416.357 451.596C415.4 451.609 415.279 451.488 415.657 450.896C416.26 449.954 417.624 448.903 418.54 448.674C419.098 448.535 419.261 448.742 419.22 449.539C419.158 450.751 418.015 451.572 416.357 451.596ZM147.476 612.479C146.972 612.655 146.463 612.639 146.345 612.443C146.216 612.228 146.596 612.022 147.301 611.924C147.944 611.834 148.517 611.838 148.574 611.933C148.63 612.027 148.613 612.117 148.535 612.132C148.456 612.147 147.98 612.303 147.476 612.479L147.476 612.479ZM127.836 620.137C125.718 621.153 125.28 621.207 124.687 620.527C123.13 618.741 126.015 616.968 129.837 617.363C133.023 617.692 133.068 617.629 127.836 620.137L127.836 620.137ZM400.763 456.273C400.199 456.495 399.218 456.879 398.583 457.128C397.768 457.447 397.269 457.314 396.884 456.674C396.225 455.577 397.081 454.279 399.372 452.903C402.646 450.935 404.941 451.65 403.485 454.183C402.786 455.401 402.579 455.56 400.763 456.273ZM147.393 607.331C147.429 607.032 147.97 606.481 148.595 606.105C149.22 605.729 149.832 605.589 149.954 605.792C150.077 605.996 149.536 606.548 148.752 607.019C147.921 607.518 147.355 607.648 147.393 607.331ZM385.24 454.116C384.526 453.954 384.56 453.654 385.423 452.493C386.552 450.976 388.096 449.856 388.709 450.11C388.914 450.195 389.129 450.746 389.186 451.335C389.267 452.158 388.922 452.628 387.703 453.36C386.83 453.885 385.721 454.225 385.24 454.116ZM379.014 456.966C378.368 457.036 377.024 457.41 376.027 457.797C375.031 458.184 372.867 458.867 371.22 459.316C369.573 459.765 367.078 460.701 365.677 461.396C364.277 462.091 362.872 462.682 362.557 462.708C361.502 462.797 346.64 471.609 344.666 473.316C341.347 476.186 338.009 476.213 336.979 473.379C336.696 472.603 336.426 472.577 335.35 473.223C334.64 473.65 333.406 474.02 332.607 474.046C331.353 474.087 331.05 473.849 330.395 472.3C329.932 471.206 329.17 470.28 328.444 469.927C327.61 469.523 327.266 469.06 327.301 468.387C327.345 467.512 327.199 467.538 325.696 468.675C324.786 469.363 323.041 470.633 321.817 471.497C320.593 472.361 318.449 473.911 317.052 474.942C314.872 476.549 314.363 476.772 313.469 476.508C312.261 476.153 312.094 475.453 312.62 472.952L312.999 471.145L310.735 471.901C308.05 472.796 304.62 475.454 302.55 478.244C301.604 479.518 300.806 480.172 299.79 480.507C299.004 480.766 296.145 482.364 293.437 484.058C288.218 487.323 287.96 487.598 285.651 492.342C284.769 494.156 282.968 495.442 280.685 495.889C279.533 496.115 279.058 496.4 278.574 497.158C278.23 497.695 277.636 498.323 277.254 498.553C276.682 498.896 276.555 498.75 276.534 497.725C276.517 496.918 276.887 496.253 277.588 495.832C278.383 495.354 278.587 494.864 278.361 493.981C277.708 491.433 278.522 490.418 284.278 486.598C285.934 485.499 287.167 484.428 287.124 484.127C287.081 483.834 287.337 483.421 287.692 483.208C288.074 482.978 288.363 483.112 288.402 483.537C288.5 484.604 290.195 483.42 290.981 481.735C291.587 480.438 291.557 480.341 290.587 480.434C289.205 480.567 288.745 479.713 289.579 478.562C290.422 477.4 294.282 475.052 294.935 475.305C295.203 475.409 295.68 475.208 295.995 474.858C296.31 474.509 297.603 473.946 298.868 473.608C302.924 472.523 306.036 471.199 307.804 469.805C309.33 468.602 309.457 468.33 308.915 467.428C308.578 466.868 307.836 466.39 307.265 466.365C306.315 466.325 306.281 466.263 306.867 465.643C307.22 465.271 309.423 464.026 311.764 462.879C314.808 461.385 316.72 460.196 318.484 458.698C320.781 456.748 326.046 453.688 331.812 450.95C333.768 450.021 333.872 449.896 333.372 449.064C333.077 448.574 333.074 447.618 333.366 446.941C333.827 445.868 334.836 445.138 341.207 441.269C348.684 436.729 350.03 435.634 348.55 435.298C347.96 435.164 346.731 435.781 343.941 437.614C340.265 440.027 340.084 440.098 338.579 439.714C336.495 439.182 336.116 438.389 336.329 435C336.429 433.425 336.433 432.009 336.339 431.853C336.246 431.697 335.602 432.007 334.909 432.542C334.216 433.077 333.203 433.569 332.658 433.636C331.848 433.735 332.051 433.271 333.763 431.108C335.408 429.03 336.089 428.441 336.922 428.374C338.572 428.241 340.14 427.094 340.587 425.693C341.217 423.717 342.93 421.91 346.57 419.382C348.455 418.073 350.254 416.5 350.7 415.771C351.14 415.053 352.803 413.591 354.446 412.478C357.281 410.557 358.431 410.121 361.59 409.769C362.71 409.644 363.594 409.11 366.704 406.678C370.715 403.543 374.143 400.396 376.077 398.074C377.926 395.854 382.652 391.819 384.988 390.466C386.152 389.791 388.056 388.689 389.22 388.015C390.383 387.341 393.428 385.051 395.985 382.926C398.542 380.8 401.783 378.363 403.187 377.509C404.592 376.655 406.489 375.304 407.404 374.506C408.319 373.709 410.471 372.069 412.186 370.863C416.821 367.603 418.18 366.474 418.918 365.274C420.617 362.512 425.848 359.103 428.445 359.066C429.399 359.052 429.674 359.342 430.137 360.854C430.902 363.35 429.583 364.715 423.348 367.874C418.819 370.169 417.642 370.969 407.849 378.411C405.217 380.411 401.827 382.927 400.316 384.001C398.805 385.076 396.824 386.763 395.914 387.751C394.861 388.893 392.097 390.936 388.315 393.366C384.414 395.872 382.127 397.57 381.662 398.304C381.272 398.919 380.11 400.071 379.081 400.865C376.051 403.201 372.851 406.315 371.155 408.579C370.284 409.741 368.603 411.417 367.419 412.304C366.235 413.191 365.075 414.347 364.843 414.873C364.427 415.812 362.835 418.051 360.359 421.181C359.669 422.053 357.479 423.866 355.492 425.211C352.699 427.101 351.586 428.118 350.584 429.695C348.758 432.571 348.413 433.615 349.313 433.539C349.71 433.506 350.067 433.837 350.107 434.275C350.169 434.95 350.398 434.895 351.612 433.914C352.399 433.277 353.629 432.18 354.345 431.475C355.06 430.771 357.154 429.215 358.997 428.018C361.657 426.292 362.625 425.406 363.686 423.731C364.421 422.57 365.537 421.311 366.166 420.933C366.794 420.555 367.706 419.809 368.192 419.275C369.481 417.86 371.072 417.62 373.043 418.544C374.761 419.349 374.773 419.369 374.194 420.429C373.838 421.081 372.5 422.168 370.783 423.199C369.23 424.132 367.335 425.515 366.572 426.272C365.809 427.028 363.29 428.766 360.974 430.134C357.645 432.099 356.502 432.981 355.513 434.35C354.825 435.301 353.512 436.677 352.597 437.407C351.681 438.137 350.67 439.01 350.349 439.348C350.029 439.685 347.798 441.193 345.392 442.699C340.323 445.87 338.231 447.854 337.947 449.76C337.792 450.803 337.339 451.36 335.984 452.174C335.016 452.756 333.397 454.315 332.385 455.638C329.661 459.204 326.67 460.06 325.242 457.683C324.846 457.024 324.55 457.106 322.661 458.397C321.487 459.199 320.099 460.331 319.577 460.913C319.055 461.494 318.037 462.48 317.315 463.104C316.593 463.727 315.827 464.787 315.613 465.459C315.239 466.631 315.273 466.681 316.443 466.685C317.247 466.689 318.37 466.198 319.743 465.242C321.543 463.989 321.918 463.876 322.529 464.403C323.187 464.971 323.452 464.858 326.485 462.714C330.692 459.74 334.397 456.718 336.612 454.455C337.584 453.462 339.653 451.684 341.21 450.504C342.766 449.325 344.912 447.689 345.978 446.871C347.044 446.052 348.459 444.525 349.122 443.477C350.192 441.787 350.941 441.194 355.793 438.198C359.903 435.66 361.764 434.275 363.301 432.612C364.425 431.396 365.796 430.243 366.349 430.05C366.92 429.851 367.696 429.026 368.149 428.136C368.907 426.645 369.452 426.264 379.86 419.926C387.497 415.276 392.063 412.256 395.063 409.869C398.958 406.771 401.058 405.149 406.965 400.671C409.46 398.781 411.731 398.803 412.58 400.727C413.456 402.711 412.843 403.228 404.393 407.646C398.979 410.477 395.878 412.317 393.729 413.977C388.319 418.152 383.691 421.13 381.557 421.807C379.936 422.321 379.04 422.896 377.158 424.628C375.859 425.825 374.275 426.986 373.638 427.209C372.94 427.452 372.022 428.294 371.331 429.324C368.905 432.94 357.209 444.53 353.735 446.76C352.664 447.448 351.602 448.499 351.324 449.145C350.662 450.685 348.531 452.429 347.061 452.634C346.177 452.757 345.438 453.243 344.166 454.538C341.304 457.452 337.476 460.353 334.8 461.635C333.401 462.305 331.735 463.329 331.097 463.911L329.937 464.968L331.386 464.744C332.183 464.62 333.681 464.163 334.715 463.728C336.994 462.769 337.755 462.98 337.288 464.443C336.707 466.266 337.628 467.148 339.378 466.442C340.78 465.877 341.986 466.212 340.899 466.864C339.729 467.568 341.076 467.668 344.383 467.124C349.724 466.245 350.989 465.769 359.756 461.33C364.165 459.097 368.717 456.942 369.87 456.541C371.024 456.14 373.698 454.973 375.813 453.948C377.929 452.923 380.324 452.044 381.136 451.995C385.003 451.761 382.966 456.533 379.014 456.965L379.014 456.966ZM70.6157 639.349C70.4933 639.145 70.6027 638.853 70.8588 638.699C71.115 638.545 71.4246 638.586 71.547 638.789C71.6694 638.993 71.56 639.286 71.3039 639.44C71.0478 639.593 70.7381 639.553 70.6157 639.349ZM123.961 605.778C123.84 605.576 124.265 605.097 124.905 604.712C125.545 604.327 126.148 604.143 126.243 604.302C126.339 604.462 125.914 604.941 125.299 605.368C124.684 605.795 124.082 605.979 123.961 605.778ZM379.252 449.81C378.659 449.874 375.67 451.308 372.61 452.995C367.146 456.009 363.672 457.301 363.189 456.498C363.055 456.275 363.228 455.337 363.573 454.413C364.163 452.836 364.399 452.635 367.451 451.11C373.125 448.274 379.131 445.645 380.155 445.548C381.468 445.424 382.469 446.569 382.132 447.809C381.823 448.944 380.821 449.641 379.252 449.81ZM363.986 450.973C363.703 450.863 363.747 450.469 364.083 450.096C364.811 449.288 365.488 449.289 365.391 450.098C365.303 450.828 364.655 451.232 363.986 450.973ZM269.723 504.25C268.092 504.306 267.508 503.637 268.362 502.69C269.327 501.619 270.28 501.179 271.334 501.318C272.568 501.48 272.626 501.587 272.157 502.84C271.694 504.078 271.503 504.189 269.723 504.25L269.723 504.25ZM97.0758 594.643C95.5241 595.047 94.9575 594.663 95.3922 593.5C96.1852 591.379 100.316 590.038 100.844 591.729C101.117 592.602 99.1893 594.092 97.0758 594.643ZM111.602 584.744C110.925 584.744 110.59 584.605 110.857 584.435C111.125 584.266 111.897 584.127 112.574 584.128C113.251 584.128 113.586 584.267 113.319 584.437C113.051 584.606 112.279 584.744 111.602 584.744ZM214.234 520.283C213.332 519.934 213.388 518.276 214.321 517.715C215.446 517.039 216.581 518.62 215.685 519.614C214.895 520.49 214.837 520.517 214.234 520.283ZM221.188 511.699C220.881 510.843 220.651 509.733 220.676 509.231C220.73 508.164 218.104 505.864 217.349 506.318C217.085 506.477 217.132 506.128 217.453 505.544C217.774 504.959 218.293 504.46 218.606 504.433C218.918 504.407 220.161 503.742 221.369 502.955C223.689 501.444 224.647 501.646 223.778 503.463C223.546 503.948 223.443 504.489 223.55 504.666C223.656 504.843 223.443 505.794 223.076 506.779C222.71 507.764 222.53 508.924 222.677 509.356C223.23 510.98 223.137 512.418 222.453 512.829C221.896 513.163 221.626 512.922 221.188 511.699ZM291.344 470.402C289.849 470.13 289.469 468.305 290.612 466.897C291.704 465.553 293.711 464.312 294.944 464.22C295.738 464.16 295.84 464.381 295.753 465.984C295.615 468.529 293.376 470.772 291.344 470.402L291.344 470.402ZM258.161 488.541C257.518 488.395 257.201 487.962 257.09 487.077C256.904 485.595 258.064 484.41 258.899 485.23C260.465 486.766 259.978 488.953 258.161 488.541ZM310.719 456.981C309.914 456.873 309.32 455.585 309.671 454.711C310.123 453.587 313.416 450.644 314.533 450.366C315.777 450.056 315.976 451.739 314.903 453.493C313.992 454.98 311.47 457.083 310.719 456.981ZM192.507 525.781C192.385 525.578 192.494 525.285 192.75 525.131C193.006 524.977 193.316 525.018 193.438 525.222C193.561 525.425 193.451 525.718 193.195 525.872C192.939 526.026 192.629 525.985 192.507 525.781ZM213.635 511.999C213.17 511.819 213.849 509.985 214.55 509.528C215.174 509.121 215.969 509.768 215.707 510.469C215.348 511.429 214.252 512.238 213.635 511.999ZM83.5345 589.917C83.1526 590.006 82.6589 589.778 82.4374 589.409C82.0204 588.715 82.6369 587.765 84.0588 586.911C85.0884 586.292 87.398 586.675 87.3052 587.449C87.2351 588.032 84.8153 589.616 83.5345 589.917ZM301.499 458.779C301.218 458.67 301.47 458.05 302.059 457.401C302.649 456.751 303.368 455.665 303.657 454.986C304.019 454.136 305.227 453.022 307.531 451.413C312.353 448.047 313.497 447.053 315.485 444.51C317.25 442.251 319.203 441.059 320.389 441.518C321.229 441.843 319.785 444.264 318.169 445.238C317.365 445.722 316.277 446.703 315.749 447.417C315.222 448.13 314 449.182 313.034 449.754C312.068 450.326 309.887 452.217 308.187 453.958C304.975 457.247 302.378 459.119 301.499 458.779ZM207.57 511.557C204.56 511.913 201.975 512 201.823 511.75C201.673 511.5 200.515 511.457 199.251 511.656C196.559 512.078 194.705 511.467 195.389 510.383C196.086 509.279 196.391 509.215 199.385 509.55C200.94 509.725 202.485 509.704 202.818 509.504C203.151 509.304 203.509 509.284 203.614 509.459C203.72 509.635 205.385 509.555 207.315 509.283C209.464 508.98 211.343 509.041 212.163 509.44C214.647 510.65 214.448 510.742 207.57 511.557ZM221.577 490.228C221.33 490.133 221.142 489.372 221.157 488.538C221.181 487.32 220.933 486.838 219.897 486.084C219.188 485.568 218.245 485.053 217.801 484.939C217.078 484.755 215.794 484.182 210.656 481.756C209.418 481.172 209.197 480.881 209.405 480.113C210.088 477.604 212.756 478.269 214.655 481.421C215.184 482.301 216.29 483.223 217.282 483.614C218.982 484.285 219.016 484.276 221.639 482.431C224.022 480.755 224.324 480.641 224.705 481.274C224.937 481.66 224.833 482.436 224.473 482.998C224.114 483.561 223.946 484.231 224.1 484.487C224.254 484.744 224.211 485.055 224.004 485.18C223.797 485.304 223.41 486.439 223.143 487.702C222.645 490.061 222.355 490.529 221.577 490.228ZM193.879 506.002C193.35 505.882 191.082 505.841 188.84 505.911C186.598 505.981 183.794 505.985 182.609 505.919C181.424 505.854 179.562 506 178.473 506.244C177.383 506.487 175.64 506.571 174.599 506.43C171.584 506.02 167.66 505.761 165.406 505.823C163.356 505.879 163.331 505.861 163.788 504.638C164.395 503.015 166.058 502.573 169.973 502.992C171.566 503.163 173.057 503.189 173.286 503.052C173.516 502.914 173.679 503.006 173.649 503.257C173.619 503.507 174.754 503.676 176.171 503.631C177.589 503.587 180.022 503.758 181.578 504.011C183.134 504.264 185.56 504.281 186.968 504.049C189.689 503.6 193.345 503.979 194.622 504.842C195.618 505.515 195.125 506.285 193.879 506.002ZM195.215 502.516C187.938 502.464 183.194 501.093 185.566 499.727C186.019 499.465 188.503 499.447 191.086 499.685C193.669 499.923 196.008 499.982 196.284 499.817C196.56 499.653 197.542 499.641 198.466 499.791C199.761 500.002 200.119 500.271 200.028 500.965C199.842 502.395 199.375 502.545 195.215 502.516ZM251.362 468.494C250.973 467.659 250.875 466.751 251.145 466.475C251.873 465.73 253.046 467.973 252.512 469.089C252.122 469.904 251.988 469.835 251.362 468.494ZM119.938 544.234C119.802 544.009 119.298 544.061 118.817 544.35C118.336 544.639 117.515 544.778 116.992 544.659C116.453 544.537 115.435 544.843 114.644 545.365C112.458 546.807 112.163 546.892 111.831 546.183C111.659 545.817 110.989 545.595 110.342 545.691C109.67 545.79 109.066 545.543 108.935 545.116C108.767 544.568 108.277 544.539 107.118 545.006C105.66 545.595 105.558 545.56 105.87 544.583C106.177 543.621 106.098 543.512 105.049 543.443C104.411 543.401 103.307 543.455 102.596 543.564C101.308 543.759 101.305 543.755 101.783 542.475C102.487 540.593 101.732 539.796 99.5812 540.152C97.987 540.416 97.8586 540.367 98.7196 539.823C99.4864 539.337 99.6465 538.78 99.3815 537.517C99.1532 536.43 98.798 535.821 98.3573 535.764C97.188 535.61 97.2334 535.018 98.4485 534.576C100.088 533.979 100.83 532.424 99.8711 531.596C99.2225 531.036 99.2832 530.84 100.259 530.345C100.895 530.022 101.818 529.477 102.309 529.135C103.057 528.613 103.053 528.521 102.285 528.567C100.563 528.67 102.095 527.167 105.374 525.534C108.405 524.026 108.42 524.011 107.85 523.062C107.142 521.884 107.559 521.16 109.064 520.95C109.825 520.844 110.232 520.607 110.276 520.245C110.391 519.287 111.549 518.938 112.37 519.616C113.147 520.256 113.172 520.245 113.423 519.146C113.672 518.055 114.479 517.746 114.965 518.555C115.096 518.773 115.625 518.761 116.141 518.528C116.656 518.294 117.409 518.147 117.814 518.201C118.218 518.254 119.325 517.831 120.273 517.262C121.751 516.374 122.246 516.329 123.749 516.95C125.966 517.865 126.851 517.635 128.269 515.778C128.893 514.961 129.591 514.324 129.82 514.365C130.049 514.405 130.017 514.672 129.747 514.96C128.95 515.81 128.482 517.443 128.938 517.785C129.171 517.959 130.244 517.944 131.323 517.752C132.402 517.559 133.263 517.602 133.236 517.848C133.209 518.093 133.838 518.19 134.633 518.063C135.428 517.936 135.935 517.95 135.761 518.094C135.586 518.237 135.258 518.523 135.032 518.728C134.807 518.932 134.32 519.31 133.952 519.566C132.973 520.246 133.863 521.351 135.297 521.236C135.975 521.182 136.503 521.357 136.471 521.625C136.439 521.894 136.688 522.09 137.025 522.062C137.893 521.989 138.517 523.213 138.078 524.129C137.875 524.554 136.915 525.447 135.944 526.114C134.746 526.937 134.284 527.503 134.508 527.875C134.974 528.65 134.463 529.387 132.735 530.434C131.57 531.14 131.229 531.656 131.202 532.749C131.183 533.523 131.378 534.302 131.634 534.48C131.979 534.72 131.67 534.946 130.453 535.345C129.001 535.821 128.807 536.026 128.829 537.066C128.85 538.073 128.684 538.261 127.705 538.343C126.798 538.419 126.537 538.596 126.464 539.189C126.413 539.602 126.1 539.963 125.768 539.991C125.148 540.043 122.001 542.528 120.836 543.884C120.444 544.341 120.086 544.481 119.938 544.234L119.938 544.234ZM272.488 449.521C272.899 449.045 273.486 447.857 273.791 446.879C274.574 444.375 275.753 442.304 278.398 438.789C279.525 437.291 282.167 432.654 282.156 432.195C282.144 431.701 285.846 426.962 287.156 425.793C287.792 425.226 288.485 424.914 288.82 425.043C289.886 425.456 288.997 427.721 286.784 430.236C285.574 431.611 284.361 433.076 284.088 433.492C283.815 433.908 282.095 436.266 280.265 438.733C278.436 441.199 276.329 444.508 275.583 446.086C274.715 447.921 273.779 449.211 272.983 449.669C271.876 450.306 271.821 450.29 272.488 449.521ZM234.726 462.48C233.477 461.418 230.701 456.543 231.043 456.013C231.614 455.127 231.532 449.392 230.933 448.361C230.287 447.248 230.494 445.489 231.332 444.986C231.953 444.612 232.658 445.724 234.109 449.366C234.851 451.23 235.057 452.855 234.806 454.873C234.576 456.728 234.727 458.144 235.236 458.899C237.021 461.55 236.655 464.121 234.726 462.48ZM174.375 491.275C172.414 491.67 169.237 491.273 168.821 490.58C168.318 489.743 162.303 487.825 160.866 488.044C159.955 488.182 159.124 488.153 159.02 487.98C158.915 487.806 158.07 487.836 157.142 488.046C155.556 488.405 151.83 487.716 152.656 487.217C152.865 487.09 152.153 487.065 151.074 487.162C149.994 487.259 148.407 486.963 147.547 486.504C146.501 485.947 144.892 485.785 142.69 486.016C140.88 486.207 138.287 486.463 136.929 486.586C135.571 486.709 133.568 486.892 132.478 486.992C131.388 487.092 128.886 487.206 126.917 487.245C124.949 487.283 122.707 487.41 121.935 487.527C121.164 487.644 119.884 487.61 119.092 487.452C118.3 487.294 115.206 487.538 112.215 487.994C108.254 488.598 105.281 488.663 101.267 488.233C98.2367 487.908 94.9427 487.619 93.9473 487.59C92.952 487.562 91.2077 487.507 90.0713 487.468C88.9348 487.429 87.0022 487.456 85.7764 487.528C83.6693 487.651 75.9113 487.307 72.1648 486.924C71.2198 486.827 69.5538 486.765 68.4627 486.786C67.3715 486.807 64.7587 486.795 62.6565 486.758C60.5541 486.722 58.0966 486.803 57.1954 486.94C56.2941 487.076 54.7183 487.044 53.6937 486.87C50.145 486.265 43.8793 485.701 41.7263 485.793C40.5368 485.843 39.2747 485.879 38.9217 485.871C38.5687 485.864 36.9737 485.867 35.3773 485.879C32.1284 485.904 29.7584 484.818 29.9408 483.388C30.2367 481.067 34.6034 478.653 37.6553 479.122C38.6538 479.276 41.114 479.652 43.1224 479.959C45.1309 480.266 47.8621 480.54 49.1919 480.568C50.5216 480.596 54.2689 480.953 57.5191 481.361C66.2939 482.464 67.1752 482.513 68.6642 481.98C69.4144 481.711 70.7584 481.702 71.6508 481.959C72.5432 482.216 73.9143 482.34 74.6976 482.233C78.504 481.714 87.1273 481.884 92.1945 482.579C95.3014 483.005 98.0537 483.227 98.3108 483.073C98.5678 482.918 99.0798 483.021 99.4484 483.302C100.506 484.105 105.747 484.649 107.216 484.107C109.147 483.396 111.163 483.134 113.43 483.302C114.524 483.383 116.795 483.363 118.477 483.257C120.158 483.151 122.483 483.222 123.642 483.415C124.802 483.609 127.532 483.528 129.71 483.237C131.888 482.946 133.738 482.821 133.822 482.96C133.906 483.099 135.658 482.813 137.717 482.323C140.186 481.735 142.94 481.541 145.81 481.752C148.202 481.928 151.091 481.863 152.229 481.608C153.366 481.354 154.568 481.323 154.899 481.54C155.23 481.757 156.432 481.838 157.571 481.721C158.71 481.605 159.613 481.75 159.578 482.046C159.541 482.353 159.765 482.303 160.103 481.927C160.428 481.567 160.804 481.457 160.94 481.683C161.075 481.908 161.513 481.896 161.912 481.656C162.311 481.417 162.612 481.436 162.58 481.701C162.52 482.201 166.423 480.962 168.122 479.942C168.659 479.619 170.12 479.195 171.369 478.999C172.618 478.803 174.064 478.388 174.582 478.076C175.1 477.765 176.489 477.584 177.668 477.675C179.622 477.825 179.964 478.057 181.515 480.279C183.192 482.682 183.204 482.751 182.315 484.998C181.166 487.899 177.759 490.593 174.375 491.275ZM270.773 423.556C269.428 422.367 269.277 420.727 270.417 419.69C270.977 419.18 271.34 418.605 271.224 418.411C271.108 418.218 271.284 418.036 271.616 418.008C271.947 417.98 272.319 418.124 272.441 418.328C272.564 418.532 272.374 418.723 272.02 418.753C271.666 418.783 271.559 419.004 271.782 419.244C272.169 419.662 272.287 420.246 272.472 422.661C272.581 424.091 271.827 424.488 270.773 423.556ZM272.218 417.648C270.495 417.699 270.359 416.696 271.912 415.391C272.722 414.71 273.048 413.974 272.938 413.079C272.848 412.357 273.17 410.623 273.651 409.225C274.133 407.828 275.088 404.762 275.773 402.412C276.459 400.062 277.204 397.588 277.429 396.915C277.654 396.242 277.783 395.348 277.714 394.928C277.559 393.972 279.022 391.9 279.906 391.825C280.269 391.795 280.717 392.02 280.9 392.325C281.353 393.078 280.192 397.48 279.418 397.945C279.077 398.15 278.893 398.477 279.01 398.672C279.127 398.866 278.437 400.619 277.477 402.567C276.112 405.336 275.771 406.697 275.916 408.801C276.018 410.282 276.233 411.51 276.394 411.531C276.555 411.553 276.123 412.438 275.436 413.499C274.748 414.561 274.052 415.919 273.889 416.518C273.618 417.517 273.478 417.611 272.218 417.648ZM110.59 505.059C108.205 504.339 108.203 502.201 110.587 502.514C111.508 502.636 113.096 504.939 112.504 505.295C112.296 505.42 111.435 505.313 110.59 505.059Z" fill="url(#paint0_linear)"/>
<defs>
<linearGradient id="paint0_linear" x1="62.822" y1="718.995" x2="84.1719" y2="672.467" gradientUnits="userSpaceOnUse">
<stop stop-color="#7E141C"/>
<stop offset="1" stop-color="#FF0000"/>
</linearGradient>
</defs>
</svg>
